Coordinates
version=1
nRows=14
nColumns=40
inDegrees=yes

Units are S.I. units (second, meters, Newtons, ...)
Angles are in degrees.

endheader
time	pelvis_tilt	pelvis_list	pelvis_rotation	pelvis_tx	pelvis_ty	pelvis_tz	hip_flexion_r	hip_adduction_r	hip_rotation_r	knee_angle_r	knee_angle_r_beta	ankle_angle_r	subtalar_angle_r	mtp_angle_r	hip_flexion_l	hip_adduction_l	hip_rotation_l	knee_angle_l	knee_angle_l_beta	ankle_angle_l	subtalar_angle_l	mtp_angle_l	lumbar_extension	lumbar_bending	lumbar_rotation	arm_flex_r	arm_add_r	arm_rot_r	elbow_flex_r	pro_sup_r	wrist_flex_r	wrist_dev_r	arm_flex_l	arm_add_l	arm_rot_l	elbow_flex_l	pro_sup_l	wrist_flex_l	wrist_dev_l
     32.97642857	     -4.32307400	     -6.18847445	     -1.41955623	      1.11251150	      0.93514106	      0.40041452	     31.92969090	     -3.79243290	     -6.30058896	     44.57685751	     44.57685751	     -1.17183817	     -6.52258253	     -3.30986437	     14.52945049	     -7.21853807	     -9.16529619	     21.99594259	     21.99594259	     13.88470872	     -9.09799815	      1.23081475	    -13.25911072	      6.13921648	      0.54655122	     -4.69042689	    -13.41812755	     -2.69939547	     32.83030371	     46.18383860	      0.00000000	      0.00000000	     16.32416745	    -20.48574883	      0.48463715	     68.62765896	     46.68500581	      0.00000000	      0.00000000
     32.99035714	     -4.60879890	     -6.18700356	     -1.86646071	      1.11067564	      0.93513184	      0.40108705	     31.68167992	     -3.41056816	     -6.71521300	     39.95917420	     39.95917420	     -0.94564826	     -4.56115125	     -3.12834810	     14.22898683	     -7.27155065	     -9.56246723	     21.51436192	     21.51436192	     13.97132874	     -9.06717973	      1.14016472	    -13.04929270	      6.04699743	      0.48018553	     -5.34928478	    -13.32333237	     -2.66650932	     32.85928270	     46.17213350	      0.00000000	      0.00000000	     16.70217618	    -20.55853558	      0.34345375	     68.94350514	     46.70848387	      0.00000000	      0.00000000
     33.00428571	     -4.74501775	     -6.07569584	     -2.31436105	      1.10894320	      0.93516034	      0.40178369	     31.10939600	     -3.19800258	     -7.37280101	     35.05910680	     35.05910680	     -0.79892355	     -1.80316169	     -3.45925432	     13.73792579	     -7.20411010	    -10.02501080	     20.99506300	     20.99506300	     13.98565414	     -9.01786344	      0.83083671	    -13.08270698	      5.83315775	      0.52671905	     -6.05339154	    -13.27782907	     -2.67501763	     33.23669316	     46.14526416	      0.00000000	      0.00000000	     17.15140440	    -20.48527393	      0.08619662	     69.33682341	     46.75142850	      0.00000000	      0.00000000
     33.01821429	     -5.03778561	     -6.05891047	     -2.72234915	      1.10719119	      0.93488770	      0.40271326	     30.52598871	     -2.71217616	     -7.90369963	     29.87417422	     29.87417422	     -0.78837632	      0.50946899	     -3.04314453	     13.51771081	     -7.24827518	    -10.31784479	     20.64847715	     20.64847715	     14.04929346	     -9.09654589	      0.62272340	    -12.87082046	      5.76088015	      0.45632754	     -6.53394319	    -13.27603188	     -2.70577653	     33.42758696	     46.13234256	      0.00000000	      0.00000000	     17.33585225	    -20.47486967	     -0.01024261	     69.55046443	     46.76990558	      0.00000000	      0.00000000
     33.03214286	     -5.19786678	     -5.86862396	     -3.12599579	      1.10562501	      0.93457217	      0.40366860	     29.71627948	     -2.48646291	     -8.85809671	     24.70176437	     24.70176437	     -0.83008405	      3.80095131	     -2.82205353	     13.10640631	     -7.09886864	    -10.71794409	     20.22085914	     20.22085914	     13.98877791	     -9.16963676	      0.12114014	    -12.80981958	      5.53020681	      0.47963010	     -7.07155940	    -13.26035843	     -2.81304919	     33.96529940	     46.10582140	      0.00000000	      0.00000000	     17.61180469	    -20.35351380	     -0.22477130	     69.76716790	     46.80925629	      0.00000000	      0.00000000
     33.04607143	     -5.44678310	     -5.79250819	     -3.52185610	      1.10411127	      0.93398824	      0.40497764	     28.88887922	     -1.91426328	     -9.38073940	     19.52328243	     19.52328243	     -1.00674387	      6.28541118	     -1.69457608	     12.88722718	     -7.10361501	    -10.95908685	     19.99357894	     19.99357894	     14.12081829	     -9.33220955	     -0.16691503	    -12.60999484	      5.38694439	      0.42220323	     -7.34007317	    -13.22342483	     -2.86909107	     34.18569682	     46.09516081	      0.00000000	      0.00000000	     17.73847158	    -20.32677831	     -0.24605227	     69.89957029	     46.82073238	      0.00000000	      0.00000000
     33.06000000	     -5.55395204	     -5.57818184	     -3.88252373	      1.10279613	      0.93340571	      0.40621333	     28.13286859	     -1.67340041	    -10.62019572	     15.20996535	     15.20996535	     -0.28051848	      9.91625208	      2.01693412	     12.45429522	     -6.92031434	    -11.20834099	     19.61473169	     19.61473169	     13.78345202	     -9.72827002	     -1.43308999	    -12.56973812	      5.13683720	      0.53779023	     -7.87671022	    -13.24436438	     -3.30549461	     35.20173034	     46.05678087	      0.00000000	      0.00000000	     18.02035537	    -20.10504269	     -0.29271925	     69.81056139	     46.88619042	      0.00000000	      0.00000000
     33.07392857	     -5.68383165	     -5.36741682	     -4.20150795	      1.10159983	      0.93270450	      0.40764501	     27.49673426	     -1.34217884	    -11.52750242	     11.49361047	     11.49361047	      0.35332024	     12.42948821	      5.92770782	     12.12928792	     -6.78715790	    -11.48699501	     19.43256450	     19.43256450	     13.86758778	     -9.82837619	     -1.90476624	    -12.44298773	      4.88829122	      0.54989337	     -7.98166891	    -13.19189028	     -3.57271191	     35.39984049	     46.04659031	      0.00000000	      0.00000000	     18.15217164	    -20.03463647	     -0.04333347	     69.74200988	     46.92408580	      0.00000000	      0.00000000
     33.08785714	     -5.75781464	     -5.14088840	     -4.47619565	      1.10057569	      0.93190761	      0.40924342	     26.85947508	     -0.99612826	    -12.09787441	      8.35642031	      8.35642031	      0.15596755	     13.86198550	      7.33869153	     11.80243674	     -6.64460266	    -11.71239040	     19.37658927	     19.37658927	     14.10082496	     -9.93035473	     -2.06390121	    -12.33558388	      4.62151518	      0.47227249	     -7.89764039	    -13.19563043	     -3.64219379	     35.55315999	     46.04183298	      0.00000000	      0.00000000	     18.12841171	    -19.97158677	      0.05530696	     69.70179720	     46.92558350	      0.00000000	      0.00000000
     33.10178571	     -5.87046880	     -4.92336544	     -4.73268108	      1.09957510	      0.93117559	      0.41085211	     26.61734800	     -0.82018604	    -12.99275752	      6.58349336	      6.58349336	      1.19825601	     15.22579698	     11.83174801	     11.50717408	     -6.52665441	    -11.99536867	     19.28876376	     19.28876376	     14.22981183	     -9.92221079	     -2.48655767	    -12.17864355	      4.40174264	      0.52445242	     -7.89250559	    -13.20829072	     -3.97525804	     35.98872060	     46.02754727	      0.00000000	      0.00000000	     18.18936178	    -19.79902701	      0.33213994	     69.38882229	     46.95116833	      0.00000000	      0.00000000
     33.11571429	     -5.94448951	     -4.68841920	     -4.92107044	      1.09879012	      0.93040495	      0.41253155	     26.30883767	     -0.68641444	    -13.46022864	      5.32445342	      5.32445342	      1.01279403	     15.56985083	     12.24329199	     11.19702609	     -6.37281899	    -12.15412206	     19.25889016	     19.25889016	     14.48588398	     -9.99025009	     -2.56944998	    -12.01959931	      4.19213895	      0.41151388	     -7.63633796	    -13.25392068	     -4.05334157	     36.16941100	     46.02404406	      0.00000000	      0.00000000	     18.02617140	    -19.66772182	      0.46898282	     69.18936858	     46.94570014	      0.00000000	      0.00000000
     33.12964286	     -6.01684857	     -4.43861670	     -5.07284255	      1.09814450	      0.92960509	      0.41420855	     26.17048239	     -0.71227305	    -13.82083835	      5.04001493	      5.04001493	      0.96818982	     15.48756889	     12.29234290	     10.90738120	     -6.20750574	    -12.29894479	     19.27591837	     19.27591837	     14.74679949	    -10.02999313	     -2.67031336	    -11.81777501	      3.95989038	      0.36820263	     -7.32051010	    -13.35826295	     -4.10581453	     36.33568390	     46.02206516	      0.00000000	      0.00000000	     17.80237386	    -19.40574557	      0.61557559	     69.03989035	     46.93394788	      0.00000000	      0.00000000
     33.14357143	     -6.00366805	     -4.24471523	     -5.15083427	      1.09778609	      0.92904276	      0.41594920	     25.80032002	     -0.77275031	    -14.16972423	      5.09420413	      5.09420413	      0.76493307	     15.28648909	     12.07426709	     10.43777464	     -6.08928395	    -12.45756944	     19.15233495	     19.15233495	     15.03651182	     -9.87678779	     -2.75882291	    -11.68330918	      3.83408034	      0.20524650	     -6.94184472	    -13.47021884	     -4.21328538	     36.63412927	     46.01746923	      0.00000000	      0.00000000	     17.49268523	    -19.30317712	      0.74925546	     68.59446908	     46.92036010	      0.00000000	      0.00000000
     33.15750000	     -5.95446799	     -3.94545480	     -5.16585611	      1.09772473	      0.92839757	      0.41760505	     25.50696418	     -1.07033856	    -14.16873895	      5.83811625	      5.83811625	      0.42470091	     14.65218890	     10.67229067	      9.91467303	     -5.86174384	    -12.70757235	     19.01357134	     19.01357134	     15.37299645	     -9.46024007	     -2.84739830	    -11.49848741	      3.61920397	     -0.03092028	     -6.57242472	    -13.58504464	     -4.42346563	     37.17778420	     46.00607239	      0.00000000	      0.00000000	     17.19312452	    -19.09938381	      0.88536238	     67.76293590	     46.90735459	      0.00000000	      0.00000000
